<svg width="145" height="145" viewBox="0 0 145 145" fill="none" xmlns="http://www.w3.org/2000/svg">
<path d="M60.8179 9.4165H62.2339L64.4287 9.55811L67.8979 10.1953L69.7388 10.6201L71.0132 10.9741L72.5 11.5405L74.1992 12.3193L75.7568 13.1689L77.2437 14.1602L77.9517 14.7266L78.7305 15.4346L79.2969 15.9302L80.2173 16.9214L80.9253 17.8418L81.6333 18.833L82.2705 19.895L83.1201 21.5234L83.6865 22.7979L84.1113 24.1431L84.6069 26.3379L84.8193 27.7539V30.3735L84.6069 31.8604L84.1821 33.5596L83.6865 35.0464L82.9077 36.8164L81.9873 38.5156L80.9961 39.9316L80.0757 41.0645L79.5801 41.6309L78.7305 42.5513L78.0225 43.1885L76.8188 44.1089L75.5444 44.9585L73.9868 45.7373L72.5 46.3037L71.0132 46.7993L69.2432 47.2241L67.9688 47.4365L65.7031 47.7197L58.9771 48.0737L56.853 48.2861L55.2246 48.6401L53.3838 49.2065L52.1802 49.7021L50.6226 50.481L49.3481 51.2598L48.0737 52.251L47.6489 52.6758H47.5073L47.3657 52.959L46.5161 53.8794L45.5957 55.083L44.9585 56.0742L44.5337 56.9238L43.8257 58.0566L42.9761 60.0391L42.6221 61.2427L42.4805 61.6675L42.2681 63.0127L42.1265 63.5083L41.9141 65.2075L41.7725 65.9863L41.6309 67.5439L41.7017 70.3052L42.1265 73.3496L42.6221 76.2524L43.2593 79.0845L43.7549 80.9961L44.7461 84.3237L45.7373 86.9434L46.4453 88.5718L47.4365 90.625L48.2861 92.2534L48.9233 93.3862L49.7729 94.7314L51.189 96.8555L52.0386 97.9883L52.959 99.1211L54.0918 100.537L54.7998 101.316L55.2954 101.882L57.2778 103.865L58.0566 104.502L58.7646 105.139L59.7559 105.918L60.4639 106.484L61.7383 107.405L64.0747 108.962L65.1367 109.6L66.8359 110.52L68.1812 111.228L69.9512 112.078L72.5 113.14L75.0488 113.989L77.8809 114.839L80.4297 115.405L83.2617 115.83L84.6069 116.042L86.5186 116.113H89.2798L91.4746 116.042L93.2446 115.83L94.9438 115.547L96.2183 115.264L98.2007 114.768L100.891 113.989L102.874 113.352L103.723 112.998L105.281 112.361L106.13 112.007L107.476 111.299L108.821 110.662L110.166 109.812L111.299 109.104L112.219 108.467L112.998 108.042L113.423 107.759L113.706 107.83L113.281 108.608L112.573 109.529L111.794 110.378L111.299 110.945L110.803 111.44L110.308 112.007L109.529 112.927L108.821 113.635L108.325 114.202L106.768 115.759L106.201 116.255L105.281 117.104L104.714 117.6L103.723 118.45L102.732 119.229L101.316 120.291L100.325 120.999L98.2715 122.344L97.2803 122.981L96.0059 123.689L94.6606 124.397L93.5278 125.034L92.1826 125.671L91.333 126.096L89.6338 126.804L86.9434 127.795L83.4741 128.787L80.7129 129.424L77.8101 129.919L74.27 130.415L71.5796 130.627L69.2432 130.698L66.9775 130.627L63.7207 130.344L60.3223 129.919L57.4194 129.424L53.5962 128.574L49.8438 127.512L47.2949 126.663L45.1001 125.884L43.2593 125.105L41.9849 124.539L40.2148 123.689L38.8696 122.981L38.1616 122.627L37.1704 122.061L36.1084 121.494L35.4004 120.999L34.48 120.432L33.418 119.795L32.71 119.229L31.8604 118.591L30.9399 117.883L30.3735 117.458L29.4531 116.75L28.6743 116.113L27.9663 115.476L27.3999 114.98L25.7007 113.423L23.7183 111.44L23.2227 110.874L22.4438 110.024L21.9482 109.458L21.311 108.75L20.8154 108.113L20.1074 107.192L19.187 105.989L18.5498 105.139L17.417 103.511L16.355 101.812L15.647 100.608L14.7974 99.0503L14.0894 97.7051L13.1689 95.7227L12.2485 93.5986L11.3281 91.1914L10.4785 88.5718L9.77051 85.8813L9.1333 82.9077L8.7085 80.5713L8.35449 78.0225L8.14209 75.0488L8.07129 73.7744V68.252L8.21289 66.0571L8.49609 64.0747L8.6377 63.5083L9.2041 60.2515L9.69971 57.7734L10.3369 55.2246L11.2573 52.5342L11.8237 50.835L12.6733 48.6401L13.3813 46.8701L14.0186 45.3833L14.8682 43.6133L15.4346 42.4805L16.355 40.7104L17.3462 39.0112L17.9126 38.02L18.7622 36.6748L19.187 35.9668L19.9658 34.7632L20.7446 33.7012L21.5942 32.4976L22.6562 31.0815L23.3643 30.1611L24.0015 29.4531L24.6387 28.6743L25.4883 27.7539L26.1255 26.9751L26.7627 26.2671L27.7539 25.2051L28.9575 24.0015L29.5239 23.5059L30.3735 22.7271L31.1523 22.0898L32.002 21.311L32.7808 20.6738L33.6304 19.9658L35.0464 18.9038L36.25 18.0542L37.5244 17.1338L38.6572 16.4258L40.0732 15.5762L41.3477 14.8682L42.9053 14.0186L45.1709 12.9565L47.1533 12.1777L50.2686 11.1157L52.3926 10.5493L53.9502 10.1953L57.4194 9.62891L58.8354 9.4873L60.8179 9.4165Z" fill="#FD5B50"/>
<path d="M94.519 50.7642H95.7935L96.9263 51.0474L97.7759 51.4722L98.6255 52.1094L99.1211 52.605L99.6167 53.313L100.042 54.3042L100.466 56.0742L101.033 59.5435L101.387 60.8887L101.953 61.9507L102.236 62.3047L103.015 62.8711L103.582 63.0835H104.927L106.06 62.6587L106.838 62.2339L107.688 61.5967L108.396 60.9595L109.246 60.1807L110.024 59.4019L110.52 58.8354L111.157 58.1274L111.653 57.561L112.502 56.5698L113.14 55.8618L113.635 55.2954L114.272 54.5874L115.618 53.2422L116.821 52.3218L117.812 51.7554L118.591 51.543H119.724L120.715 51.8262L121.494 52.251L121.99 52.7466L122.698 53.7378L123.052 54.5166L123.264 55.3662V59.1895L123.052 61.0303L122.627 63.0127L121.777 66.0571L120.786 68.96L120.007 70.73L118.945 72.854L118.025 74.4824L117.317 75.686L116.68 76.748L115.688 78.3057L114.98 79.2969L114.414 80.0757L113.706 81.0669L113.21 81.6333L112.573 82.4121L111.865 83.1909L111.37 83.7573L110.378 84.8193L110.237 85.0317H110.095L109.954 85.3149L109.175 86.0938L108.679 86.6602L107.546 87.793L106.98 88.2886L106.201 88.9966L105.422 89.6338L104.714 90.271L103.936 90.9082L103.086 91.5454L101.812 92.4658L100.112 93.5986L99.1211 94.2358L97.9175 94.9438L96.2891 95.7935L94.0234 96.8555L91.333 97.8467L88.7134 98.5547L86.9434 99.0503L84.2529 99.5459L81.7749 99.8999L80.1465 99.9707L77.4561 99.8999L74.8364 99.6875L72.2876 99.3335L69.4556 98.7671L67.6147 98.2715L65.4907 97.5635L63.5791 96.7139L62.7295 96.2183L61.7383 95.7227L60.8179 95.1562L60.1099 94.7314L58.9062 93.8818L58.269 93.3154L57.6318 92.8198L56.499 91.8994L55.7202 91.2622L54.5874 90.2002L54.021 89.6338L53.0298 88.501L52.1094 87.2266L51.3306 86.2354L50.7642 85.4565L50.127 84.4653L49.4189 83.2617L48.5693 81.6333L48.0029 80.4297L47.2949 78.7305L46.7285 77.2437L45.9497 74.624L45.5957 72.854L45.2417 70.3052L45.1709 69.5972V65.9155L45.3125 64.2871L45.7373 62.3755L46.3037 60.6763L47.0825 58.9062L47.5073 58.0566L48.2153 56.9946L48.9233 56.145L49.4189 55.5786L50.2686 54.7998L51.4722 53.8794L53.0298 53.0298L53.8794 52.6758L55.2246 52.251L56.7114 52.0386H58.0566L59.2603 52.251L61.1719 52.8882L62.2339 53.4546L62.9419 54.021L63.7915 54.8706L64.4995 55.791L65.3491 57.207L65.9155 58.3398L66.6943 60.1807L67.4731 62.3047L68.1812 64.0039L68.8892 65.1367L69.5264 65.8447L70.1636 66.4111L71.2964 67.1191L72.146 67.4023L72.2876 67.4731H74.1992L75.332 67.1191L75.9692 66.8359L76.8896 66.3403L78.1641 65.4199L79.0845 64.7119L80.2881 63.5791L81.0669 62.7295L81.7041 61.9507L82.1289 61.4551L82.6245 60.8887L83.2617 60.0391L83.8989 59.2603L84.4653 58.5522L85.3857 57.4902L86.2354 56.499L87.793 54.7998L88.6426 53.9502L89.4214 53.313L90.4834 52.5342L91.5454 51.897L92.6782 51.3306L94.165 50.835L94.519 50.7642Z" fill="#FDCA10"/>
<path d="M142.451 64.2163H143.796L145 64.3579V64.7827L144.363 64.8535L141.814 65.7739L140.115 66.3403L137.92 67.1899L136.15 68.1104L134.946 68.8892L134.097 69.4556L132.822 70.376L131.902 71.084L130.698 72.0752L129.99 72.7832L129.636 73.0664L129.211 73.562L128.857 73.8452L128.362 74.4116L127.866 74.9072L127.371 75.4736L126.521 76.4648L125.742 77.4561L124.822 78.5889L124.255 79.2969L123.264 80.5005L122.556 81.4209L121.707 82.6245L120.291 84.4653L119.795 85.0317L117.883 87.3682L117.104 88.2886L116.467 89.0674L115.618 89.9878L115.122 90.5542L114.131 91.6162L113.635 92.1118L113.281 92.5366L112.927 92.8198L112.432 93.3862L111.299 94.519L110.732 95.0146L109.954 95.7935L109.387 96.2891L108.679 96.8555L107.9 97.4219L106.838 98.2007L105.847 98.9795L104.927 99.6875L104.148 100.183L102.449 101.316L101.741 101.741L100.608 102.307L99.2627 103.015L97.2095 103.936L95.1562 104.714L93.0322 105.493L91.0498 106.06L89.0674 106.555L88.0762 106.768L86.4478 106.98L80.2881 107.405L80.4297 107.688L81.4209 107.9L83.8989 108.184L85.2441 108.325H89.209L91.1914 108.113L94.4482 107.617L96.3599 107.192L98.4131 106.626L100.75 105.847L101.882 105.422L103.369 104.856L104.573 104.29L106.06 103.582L107.051 103.015L107.9 102.59L109.104 101.882L109.883 101.387L110.591 100.82L112.573 99.4043L113.635 98.5547L114.414 97.9175L116.255 96.3599L117.317 95.4395L119.866 92.8906L120.503 92.1118L121.211 91.4038L121.707 90.8374L122.202 90.3418L122.698 89.7754L123.618 88.7134L125.034 87.2974L125.955 86.5894L126.238 86.4478L126.167 86.8726L125.671 88.0762L124.822 89.4922L124.468 90.1294L123.972 90.8374L123.264 91.9702L122.273 93.3862L121.211 94.8022L120.291 95.9351L119.512 96.9263L118.662 97.9175L118.025 98.6963L117.529 99.1919L117.034 99.7583L115.972 100.82L115.688 101.174L115.122 101.67L114.202 102.52L112.998 103.44L112.007 104.219L110.591 105.281L109.529 106.06L108.325 106.838L106.626 107.83L105.281 108.538L103.652 109.246L101.741 110.024L99.5459 110.803L98.7671 111.086L96.7847 111.724L95.2979 112.078L92.2534 112.573L90.625 112.786H86.0938L84.6069 112.644L82.0581 112.219L80.0049 111.865L77.8809 111.37L76.2524 110.874L73.3496 109.883L71.8628 109.246L70.022 108.396L68.96 107.83L68.1104 107.405L66.7651 106.626L65.9863 106.13L64.9243 105.422L63.7915 104.573L63.0127 103.936L62.0215 103.086L61.2427 102.449L60.6055 101.812L60.0391 101.316L59.4019 100.679V100.537L59.1895 100.466L58.6938 99.8999L58.4106 99.6875V99.5459L58.1274 99.4043L57.2778 98.5547L56.7114 98.0591L55.6494 96.9263L54.9414 96.0059L54.4458 95.1562V95.0146L55.0122 95.1562L55.7202 95.4395L56.5698 96.0059L57.207 96.5723L57.9858 97.2095L59.0479 97.9883L60.0391 98.6255L61.4551 99.4043L63.2251 100.183L65.2783 100.962L67.4731 101.67L69.2432 102.095L72.3584 102.732L75.0488 103.086L76.4648 103.228L79.0137 103.298L81.6333 103.228L84.8901 102.874L87.085 102.52L89.9878 101.882L91.7578 101.387L93.457 100.82L95.7227 99.8999L97.7759 98.9087L98.9795 98.2715L100.608 97.3511L102.024 96.5015L102.803 96.0059L104.219 95.0146L104.998 94.3774L106.98 92.8198L107.617 92.2534L108.396 91.6162L109.316 90.7666L110.166 89.9878L111.086 89.1382L113.069 87.1558L113.564 86.5894L114.485 85.6689L114.98 85.1025L115.618 84.3945L116.326 83.4741L116.963 82.7661L117.529 82.0581L118.662 80.8545L119.583 79.7925L120.149 79.2261L120.645 78.6597L121.282 77.9517L121.777 77.3853L122.415 76.6772L122.91 76.1108L123.547 75.4028L124.397 74.4824L125.884 72.9956L126.45 72.5L127.512 71.5796L128.362 70.8008L129.07 70.2344L129.636 69.7388L130.415 69.1016L131.477 68.3936L133.176 67.4023L134.521 66.6943L135.654 66.1279L137.566 65.3491L138.628 64.9951L141.248 64.3579L142.451 64.2163Z" fill="#00CF81"/>
<path d="M8.56689 48.4985H8.6377L8.56689 49.1357L8.00049 51.4014L7.15088 53.9502L6.79688 55.083L6.44287 56.2866L5.80566 58.8354L5.38086 60.8887L4.95605 64.2871L4.67285 66.6235L4.46045 69.3848V73.7744L4.74365 78.0225L4.95605 79.5093L5.45166 82.5537L6.15967 85.8813L6.51367 87.2974L7.36328 90.271L8.35449 93.2446L9.4165 95.9351L10.1245 97.5635L11.0449 99.5459L12.2485 101.882L13.9478 104.714L14.8682 106.06L15.9302 107.617L16.8506 108.821L17.4878 109.67L18.2666 110.662L19.1162 111.653L19.6118 112.219L20.3198 112.998L20.8154 113.564L21.5234 114.272L22.019 114.839L22.7271 115.476L23.5767 116.326L24.1431 116.821L25.0635 117.671L25.9131 118.45L26.4795 118.945L27.6123 119.866L28.7451 120.715L30.0903 121.707L31.2939 122.556L34.0552 124.397L35.542 125.317L37.5952 126.521L39.5068 127.512L41.3477 128.362L43.9673 129.424L45.8789 130.132L48.2153 130.911L51.2598 131.76L55.3662 132.681L58.3398 133.105L60.9595 133.459L62.8711 133.813L64.8535 134.309L64.9951 134.38V134.521L63.6499 134.805L63.0835 134.875L61.3135 134.946H59.8267L56.7822 134.805L55.0122 134.663L50.127 133.955L47.9321 133.53L43.7549 132.397L40.8521 131.406L38.2324 130.415L35.6836 129.282L34.3384 128.645L32.9932 127.937L31.1523 126.946L29.4531 125.955L28.1079 125.105L26.1963 123.831L24.9219 122.91L23.8599 122.061L22.8687 121.282L21.0278 119.724L20.1782 118.945L19.4702 118.308L17.9126 116.75L17.417 116.184L16.709 115.405L16.0718 114.626L15.293 113.706L14.6558 112.927L13.7354 111.794L12.7441 110.449L12.0361 109.387L10.9033 107.759L10.0537 106.343L9.2749 105.068L8.42529 103.582L7.08008 100.891L6.44287 99.4751L5.52246 97.3511L4.53125 94.7314L3.61084 91.8994L3.04443 89.8462L2.33643 86.8018L1.98242 84.6777L1.62842 81.9165L1.34521 78.6597L1.27441 77.0312V75.6152L1.41602 72.854L1.69922 69.4556L1.98242 67.1191L2.40723 64.7119L3.04443 61.7383L3.75244 59.2603L4.60205 56.7114L5.38086 54.5874L6.15967 52.7466L7.00928 50.9766L7.43408 50.1978L8.00049 49.2773L8.56689 48.4985Z" fill="#00CF81"/>
<path d="M44.8877 55.9326L44.9585 56.0742L44.5337 56.9238L44.2505 57.207L44.3213 56.9238L44.8169 56.0034L44.8877 55.9326Z" fill="#FDCB10"/>
</svg>
